<svg width="593" height="673" viewBox="0 0 593 673" fill="none" xmlns="http://www.w3.org/2000/svg">
<path d="M154.594 225.75V294H145.5L111.141 241.359V294H102.094V225.75H111.141L145.641 278.531V225.75H154.594ZM190.359 294.938C186.828 294.938 183.625 294.344 180.75 293.156C177.906 291.938 175.453 290.234 173.391 288.047C171.359 285.859 169.797 283.266 168.703 280.266C167.609 277.266 167.062 273.984 167.062 270.422V268.453C167.062 264.328 167.672 260.656 168.891 257.438C170.109 254.188 171.766 251.438 173.859 249.188C175.953 246.938 178.328 245.234 180.984 244.078C183.641 242.922 186.391 242.344 189.234 242.344C192.859 242.344 195.984 242.969 198.609 244.219C201.266 245.469 203.438 247.219 205.125 249.469C206.812 251.688 208.062 254.312 208.875 257.344C209.688 260.344 210.094 263.625 210.094 267.188V271.078H172.219V264H201.422V263.344C201.297 261.094 200.828 258.906 200.016 256.781C199.234 254.656 197.984 252.906 196.266 251.531C194.547 250.156 192.203 249.469 189.234 249.469C187.266 249.469 185.453 249.891 183.797 250.734C182.141 251.547 180.719 252.766 179.531 254.391C178.344 256.016 177.422 258 176.766 260.344C176.109 262.688 175.781 265.391 175.781 268.453V270.422C175.781 272.828 176.109 275.094 176.766 277.219C177.453 279.312 178.438 281.156 179.719 282.75C181.031 284.344 182.609 285.594 184.453 286.5C186.328 287.406 188.453 287.859 190.828 287.859C193.891 287.859 196.484 287.234 198.609 285.984C200.734 284.734 202.594 283.062 204.188 280.969L209.438 285.141C208.344 286.797 206.953 288.375 205.266 289.875C203.578 291.375 201.5 292.594 199.031 293.531C196.594 294.469 193.703 294.938 190.359 294.938ZM233.062 285L246.094 243.281H251.812L250.688 251.578L237.422 294H231.844L233.062 285ZM224.297 243.281L235.406 285.469L236.203 294H230.344L215.625 243.281H224.297ZM264.281 285.141L274.875 243.281H283.5L268.781 294H262.969L264.281 285.141ZM253.078 243.281L265.828 284.297L267.281 294H261.75L248.109 251.484L246.984 243.281H253.078ZM320.672 225.75L338.391 260.016L356.156 225.75H366.422L342.891 268.5V294H333.844V268.5L310.312 225.75H320.672ZM391.828 294.938C388.297 294.938 385.094 294.344 382.219 293.156C379.375 291.938 376.922 290.234 374.859 288.047C372.828 285.859 371.266 283.266 370.172 280.266C369.078 277.266 368.531 273.984 368.531 270.422V268.453C368.531 264.328 369.141 260.656 370.359 257.438C371.578 254.188 373.234 251.438 375.328 249.188C377.422 246.938 379.797 245.234 382.453 244.078C385.109 242.922 387.859 242.344 390.703 242.344C394.328 242.344 397.453 242.969 400.078 244.219C402.734 245.469 404.906 247.219 406.594 249.469C408.281 251.688 409.531 254.312 410.344 257.344C411.156 260.344 411.562 263.625 411.562 267.188V271.078H373.688V264H402.891V263.344C402.766 261.094 402.297 258.906 401.484 256.781C400.703 254.656 399.453 252.906 397.734 251.531C396.016 250.156 393.672 249.469 390.703 249.469C388.734 249.469 386.922 249.891 385.266 250.734C383.609 251.547 382.188 252.766 381 254.391C379.812 256.016 378.891 258 378.234 260.344C377.578 262.688 377.25 265.391 377.25 268.453V270.422C377.25 272.828 377.578 275.094 378.234 277.219C378.922 279.312 379.906 281.156 381.188 282.75C382.5 284.344 384.078 285.594 385.922 286.5C387.797 287.406 389.922 287.859 392.297 287.859C395.359 287.859 397.953 287.234 400.078 285.984C402.203 284.734 404.062 283.062 405.656 280.969L410.906 285.141C409.812 286.797 408.422 288.375 406.734 289.875C405.047 291.375 402.969 292.594 400.5 293.531C398.062 294.469 395.172 294.938 391.828 294.938ZM451.594 285.328V259.219C451.594 257.219 451.188 255.484 450.375 254.016C449.594 252.516 448.406 251.359 446.812 250.547C445.219 249.734 443.25 249.328 440.906 249.328C438.719 249.328 436.797 249.703 435.141 250.453C433.516 251.203 432.234 252.188 431.297 253.406C430.391 254.625 429.938 255.938 429.938 257.344H421.266C421.266 255.531 421.734 253.734 422.672 251.953C423.609 250.172 424.953 248.562 426.703 247.125C428.484 245.656 430.609 244.5 433.078 243.656C435.578 242.781 438.359 242.344 441.422 242.344C445.109 242.344 448.359 242.969 451.172 244.219C454.016 245.469 456.234 247.359 457.828 249.891C459.453 252.391 460.266 255.531 460.266 259.312V282.938C460.266 284.625 460.406 286.422 460.688 288.328C461 290.234 461.453 291.875 462.047 293.25V294H453C452.562 293 452.219 291.672 451.969 290.016C451.719 288.328 451.594 286.766 451.594 285.328ZM453.094 263.25L453.188 269.344H444.422C441.953 269.344 439.75 269.547 437.812 269.953C435.875 270.328 434.25 270.906 432.938 271.688C431.625 272.469 430.625 273.453 429.938 274.641C429.25 275.797 428.906 277.156 428.906 278.719C428.906 280.312 429.266 281.766 429.984 283.078C430.703 284.391 431.781 285.438 433.219 286.219C434.688 286.969 436.484 287.344 438.609 287.344C441.266 287.344 443.609 286.781 445.641 285.656C447.672 284.531 449.281 283.156 450.469 281.531C451.688 279.906 452.344 278.328 452.438 276.797L456.141 280.969C455.922 282.281 455.328 283.734 454.359 285.328C453.391 286.922 452.094 288.453 450.469 289.922C448.875 291.359 446.969 292.562 444.75 293.531C442.562 294.469 440.094 294.938 437.344 294.938C433.906 294.938 430.891 294.266 428.297 292.922C425.734 291.578 423.734 289.781 422.297 287.531C420.891 285.25 420.188 282.703 420.188 279.891C420.188 277.172 420.719 274.781 421.781 272.719C422.844 270.625 424.375 268.891 426.375 267.516C428.375 266.109 430.781 265.047 433.594 264.328C436.406 263.609 439.547 263.25 443.016 263.25H453.094ZM482.578 251.25V294H473.906V243.281H482.344L482.578 251.25ZM498.422 243L498.375 251.062C497.656 250.906 496.969 250.812 496.312 250.781C495.688 250.719 494.969 250.688 494.156 250.688C492.156 250.688 490.391 251 488.859 251.625C487.328 252.25 486.031 253.125 484.969 254.25C483.906 255.375 483.062 256.719 482.438 258.281C481.844 259.812 481.453 261.5 481.266 263.344L478.828 264.75C478.828 261.688 479.125 258.812 479.719 256.125C480.344 253.438 481.297 251.062 482.578 249C483.859 246.906 485.484 245.281 487.453 244.125C489.453 242.938 491.828 242.344 494.578 242.344C495.203 242.344 495.922 242.422 496.734 242.578C497.547 242.703 498.109 242.844 498.422 243Z" fill="white"/>
<path d="M242.672 620.766H245.672C245.516 622.203 245.104 623.49 244.438 624.625C243.771 625.76 242.828 626.661 241.609 627.328C240.391 627.984 238.87 628.312 237.047 628.312C235.714 628.312 234.5 628.062 233.406 627.562C232.323 627.062 231.391 626.354 230.609 625.438C229.828 624.51 229.224 623.401 228.797 622.109C228.38 620.807 228.172 619.359 228.172 617.766V615.5C228.172 613.906 228.38 612.464 228.797 611.172C229.224 609.87 229.833 608.755 230.625 607.828C231.427 606.901 232.391 606.188 233.516 605.688C234.641 605.188 235.906 604.938 237.312 604.938C239.031 604.938 240.484 605.26 241.672 605.906C242.859 606.552 243.781 607.448 244.438 608.594C245.104 609.729 245.516 611.047 245.672 612.547H242.672C242.526 611.484 242.255 610.573 241.859 609.812C241.464 609.042 240.901 608.448 240.172 608.031C239.443 607.615 238.49 607.406 237.312 607.406C236.302 607.406 235.411 607.599 234.641 607.984C233.88 608.37 233.24 608.917 232.719 609.625C232.208 610.333 231.823 611.182 231.562 612.172C231.302 613.161 231.172 614.26 231.172 615.469V617.766C231.172 618.88 231.286 619.927 231.516 620.906C231.755 621.885 232.115 622.745 232.594 623.484C233.073 624.224 233.682 624.807 234.422 625.234C235.161 625.651 236.036 625.859 237.047 625.859C238.328 625.859 239.349 625.656 240.109 625.25C240.87 624.844 241.443 624.26 241.828 623.5C242.224 622.74 242.505 621.828 242.672 620.766ZM252.484 604V628H249.578V604H252.484ZM260.266 611.094V628H257.359V611.094H260.266ZM257.141 606.609C257.141 606.141 257.281 605.745 257.562 605.422C257.854 605.099 258.281 604.938 258.844 604.938C259.396 604.938 259.818 605.099 260.109 605.422C260.411 605.745 260.562 606.141 260.562 606.609C260.562 607.057 260.411 607.443 260.109 607.766C259.818 608.078 259.396 608.234 258.844 608.234C258.281 608.234 257.854 608.078 257.562 607.766C257.281 607.443 257.141 607.057 257.141 606.609ZM271.672 625.938C272.359 625.938 272.995 625.797 273.578 625.516C274.161 625.234 274.641 624.849 275.016 624.359C275.391 623.859 275.604 623.292 275.656 622.656H278.406C278.354 623.656 278.016 624.589 277.391 625.453C276.776 626.307 275.969 627 274.969 627.531C273.969 628.052 272.87 628.312 271.672 628.312C270.401 628.312 269.292 628.089 268.344 627.641C267.406 627.193 266.625 626.578 266 625.797C265.385 625.016 264.922 624.12 264.609 623.109C264.307 622.089 264.156 621.01 264.156 619.875V619.219C264.156 618.083 264.307 617.01 264.609 616C264.922 614.979 265.385 614.078 266 613.297C266.625 612.516 267.406 611.901 268.344 611.453C269.292 611.005 270.401 610.781 271.672 610.781C272.995 610.781 274.151 611.052 275.141 611.594C276.13 612.125 276.906 612.854 277.469 613.781C278.042 614.698 278.354 615.74 278.406 616.906H275.656C275.604 616.208 275.406 615.578 275.062 615.016C274.729 614.453 274.271 614.005 273.688 613.672C273.115 613.328 272.443 613.156 271.672 613.156C270.786 613.156 270.042 613.333 269.438 613.688C268.844 614.031 268.37 614.5 268.016 615.094C267.672 615.677 267.422 616.328 267.266 617.047C267.12 617.755 267.047 618.479 267.047 619.219V619.875C267.047 620.615 267.12 621.344 267.266 622.062C267.411 622.781 267.656 623.432 268 624.016C268.354 624.599 268.828 625.068 269.422 625.422C270.026 625.766 270.776 625.938 271.672 625.938ZM284.562 604V628H281.656V604H284.562ZM294.891 611.094L287.516 618.984L283.391 623.266L283.156 620.188L286.109 616.656L291.359 611.094H294.891ZM292.25 628L286.219 619.938L287.719 617.359L295.656 628H292.25ZM308.703 604V628H305.812V604H308.703ZM308.016 618.906L306.812 618.859C306.823 617.703 306.995 616.635 307.328 615.656C307.661 614.667 308.13 613.807 308.734 613.078C309.339 612.349 310.057 611.786 310.891 611.391C311.734 610.984 312.667 610.781 313.688 610.781C314.521 610.781 315.271 610.896 315.938 611.125C316.604 611.344 317.172 611.698 317.641 612.188C318.12 612.677 318.484 613.312 318.734 614.094C318.984 614.865 319.109 615.807 319.109 616.922V628H316.203V616.891C316.203 616.005 316.073 615.297 315.812 614.766C315.552 614.224 315.172 613.833 314.672 613.594C314.172 613.344 313.557 613.219 312.828 613.219C312.109 613.219 311.453 613.37 310.859 613.672C310.276 613.974 309.771 614.391 309.344 614.922C308.927 615.453 308.599 616.062 308.359 616.75C308.13 617.427 308.016 618.146 308.016 618.906ZM330.453 628.312C329.276 628.312 328.208 628.115 327.25 627.719C326.302 627.312 325.484 626.745 324.797 626.016C324.12 625.286 323.599 624.422 323.234 623.422C322.87 622.422 322.688 621.328 322.688 620.141V619.484C322.688 618.109 322.891 616.885 323.297 615.812C323.703 614.729 324.255 613.812 324.953 613.062C325.651 612.312 326.443 611.745 327.328 611.359C328.214 610.974 329.13 610.781 330.078 610.781C331.286 610.781 332.328 610.99 333.203 611.406C334.089 611.823 334.812 612.406 335.375 613.156C335.938 613.896 336.354 614.771 336.625 615.781C336.896 616.781 337.031 617.875 337.031 619.062V620.359H324.406V618H334.141V617.781C334.099 617.031 333.943 616.302 333.672 615.594C333.411 614.885 332.995 614.302 332.422 613.844C331.849 613.385 331.068 613.156 330.078 613.156C329.422 613.156 328.818 613.297 328.266 613.578C327.714 613.849 327.24 614.255 326.844 614.797C326.448 615.339 326.141 616 325.922 616.781C325.703 617.562 325.594 618.464 325.594 619.484V620.141C325.594 620.943 325.703 621.698 325.922 622.406C326.151 623.104 326.479 623.719 326.906 624.25C327.344 624.781 327.87 625.198 328.484 625.5C329.109 625.802 329.818 625.953 330.609 625.953C331.63 625.953 332.495 625.745 333.203 625.328C333.911 624.911 334.531 624.354 335.062 623.656L336.812 625.047C336.448 625.599 335.984 626.125 335.422 626.625C334.859 627.125 334.167 627.531 333.344 627.844C332.531 628.156 331.568 628.312 330.453 628.312ZM343.297 613.75V628H340.406V611.094H343.219L343.297 613.75ZM348.578 611L348.562 613.688C348.323 613.635 348.094 613.604 347.875 613.594C347.667 613.573 347.427 613.562 347.156 613.562C346.49 613.562 345.901 613.667 345.391 613.875C344.88 614.083 344.448 614.375 344.094 614.75C343.74 615.125 343.458 615.573 343.25 616.094C343.052 616.604 342.922 617.167 342.859 617.781L342.047 618.25C342.047 617.229 342.146 616.271 342.344 615.375C342.552 614.479 342.87 613.688 343.297 613C343.724 612.302 344.266 611.76 344.922 611.375C345.589 610.979 346.38 610.781 347.297 610.781C347.505 610.781 347.745 610.807 348.016 610.859C348.286 610.901 348.474 610.948 348.578 611ZM357.953 628.312C356.776 628.312 355.708 628.115 354.75 627.719C353.802 627.312 352.984 626.745 352.297 626.016C351.62 625.286 351.099 624.422 350.734 623.422C350.37 622.422 350.188 621.328 350.188 620.141V619.484C350.188 618.109 350.391 616.885 350.797 615.812C351.203 614.729 351.755 613.812 352.453 613.062C353.151 612.312 353.943 611.745 354.828 611.359C355.714 610.974 356.63 610.781 357.578 610.781C358.786 610.781 359.828 610.99 360.703 611.406C361.589 611.823 362.312 612.406 362.875 613.156C363.438 613.896 363.854 614.771 364.125 615.781C364.396 616.781 364.531 617.875 364.531 619.062V620.359H351.906V618H361.641V617.781C361.599 617.031 361.443 616.302 361.172 615.594C360.911 614.885 360.495 614.302 359.922 613.844C359.349 613.385 358.568 613.156 357.578 613.156C356.922 613.156 356.318 613.297 355.766 613.578C355.214 613.849 354.74 614.255 354.344 614.797C353.948 615.339 353.641 616 353.422 616.781C353.203 617.562 353.094 618.464 353.094 619.484V620.141C353.094 620.943 353.203 621.698 353.422 622.406C353.651 623.104 353.979 623.719 354.406 624.25C354.844 624.781 355.37 625.198 355.984 625.5C356.609 625.802 357.318 625.953 358.109 625.953C359.13 625.953 359.995 625.745 360.703 625.328C361.411 624.911 362.031 624.354 362.562 623.656L364.312 625.047C363.948 625.599 363.484 626.125 362.922 626.625C362.359 627.125 361.667 627.531 360.844 627.844C360.031 628.156 359.068 628.312 357.953 628.312ZM251.672 649.094V651.312H242.531V649.094H251.672ZM245.625 644.984H248.516V661.812C248.516 662.385 248.604 662.818 248.781 663.109C248.958 663.401 249.188 663.594 249.469 663.688C249.75 663.781 250.052 663.828 250.375 663.828C250.615 663.828 250.865 663.807 251.125 663.766C251.396 663.714 251.599 663.672 251.734 663.641L251.75 666C251.521 666.073 251.219 666.141 250.844 666.203C250.479 666.276 250.036 666.312 249.516 666.312C248.807 666.312 248.156 666.172 247.562 665.891C246.969 665.609 246.495 665.141 246.141 664.484C245.797 663.818 245.625 662.922 245.625 661.797V644.984ZM253.984 657.734V657.375C253.984 656.156 254.161 655.026 254.516 653.984C254.87 652.932 255.38 652.021 256.047 651.25C256.714 650.469 257.521 649.865 258.469 649.438C259.417 649 260.479 648.781 261.656 648.781C262.844 648.781 263.911 649 264.859 649.438C265.818 649.865 266.63 650.469 267.297 651.25C267.974 652.021 268.49 652.932 268.844 653.984C269.198 655.026 269.375 656.156 269.375 657.375V657.734C269.375 658.953 269.198 660.083 268.844 661.125C268.49 662.167 267.974 663.078 267.297 663.859C266.63 664.63 265.823 665.234 264.875 665.672C263.938 666.099 262.875 666.312 261.688 666.312C260.5 666.312 259.432 666.099 258.484 665.672C257.536 665.234 256.724 664.63 256.047 663.859C255.38 663.078 254.87 662.167 254.516 661.125C254.161 660.083 253.984 658.953 253.984 657.734ZM256.875 657.375V657.734C256.875 658.578 256.974 659.375 257.172 660.125C257.37 660.865 257.667 661.521 258.062 662.094C258.469 662.667 258.974 663.12 259.578 663.453C260.182 663.776 260.885 663.938 261.688 663.938C262.479 663.938 263.172 663.776 263.766 663.453C264.37 663.12 264.87 662.667 265.266 662.094C265.661 661.521 265.958 660.865 266.156 660.125C266.365 659.375 266.469 658.578 266.469 657.734V657.375C266.469 656.542 266.365 655.755 266.156 655.016C265.958 654.266 265.656 653.604 265.25 653.031C264.854 652.448 264.354 651.99 263.75 651.656C263.156 651.323 262.458 651.156 261.656 651.156C260.865 651.156 260.167 651.323 259.562 651.656C258.969 651.99 258.469 652.448 258.062 653.031C257.667 653.604 257.37 654.266 257.172 655.016C256.974 655.755 256.875 656.542 256.875 657.375ZM280.172 657.734V657.375C280.172 656.156 280.349 655.026 280.703 653.984C281.057 652.932 281.568 652.021 282.234 651.25C282.901 650.469 283.708 649.865 284.656 649.438C285.604 649 286.667 648.781 287.844 648.781C289.031 648.781 290.099 649 291.047 649.438C292.005 649.865 292.818 650.469 293.484 651.25C294.161 652.021 294.677 652.932 295.031 653.984C295.385 655.026 295.562 656.156 295.562 657.375V657.734C295.562 658.953 295.385 660.083 295.031 661.125C294.677 662.167 294.161 663.078 293.484 663.859C292.818 664.63 292.01 665.234 291.062 665.672C290.125 666.099 289.062 666.312 287.875 666.312C286.688 666.312 285.62 666.099 284.672 665.672C283.724 665.234 282.911 664.63 282.234 663.859C281.568 663.078 281.057 662.167 280.703 661.125C280.349 660.083 280.172 658.953 280.172 657.734ZM283.062 657.375V657.734C283.062 658.578 283.161 659.375 283.359 660.125C283.557 660.865 283.854 661.521 284.25 662.094C284.656 662.667 285.161 663.12 285.766 663.453C286.37 663.776 287.073 663.938 287.875 663.938C288.667 663.938 289.359 663.776 289.953 663.453C290.557 663.12 291.057 662.667 291.453 662.094C291.849 661.521 292.146 660.865 292.344 660.125C292.552 659.375 292.656 658.578 292.656 657.734V657.375C292.656 656.542 292.552 655.755 292.344 655.016C292.146 654.266 291.844 653.604 291.438 653.031C291.042 652.448 290.542 651.99 289.938 651.656C289.344 651.323 288.646 651.156 287.844 651.156C287.052 651.156 286.354 651.323 285.75 651.656C285.156 651.99 284.656 652.448 284.25 653.031C283.854 653.604 283.557 654.266 283.359 655.016C283.161 655.755 283.062 656.542 283.062 657.375ZM302.078 652.344V672.5H299.172V649.094H301.828L302.078 652.344ZM313.469 657.406V657.734C313.469 658.964 313.323 660.104 313.031 661.156C312.74 662.198 312.312 663.104 311.75 663.875C311.198 664.646 310.516 665.245 309.703 665.672C308.891 666.099 307.958 666.312 306.906 666.312C305.833 666.312 304.885 666.135 304.062 665.781C303.24 665.427 302.542 664.911 301.969 664.234C301.396 663.557 300.938 662.745 300.594 661.797C300.26 660.849 300.031 659.781 299.906 658.594V656.844C300.031 655.594 300.266 654.474 300.609 653.484C300.953 652.495 301.406 651.651 301.969 650.953C302.542 650.245 303.234 649.708 304.047 649.344C304.859 648.969 305.797 648.781 306.859 648.781C307.922 648.781 308.865 648.99 309.688 649.406C310.51 649.812 311.203 650.396 311.766 651.156C312.328 651.917 312.75 652.828 313.031 653.891C313.323 654.943 313.469 656.115 313.469 657.406ZM310.562 657.734V657.406C310.562 656.562 310.474 655.771 310.297 655.031C310.12 654.281 309.844 653.625 309.469 653.062C309.104 652.49 308.635 652.042 308.062 651.719C307.49 651.385 306.807 651.219 306.016 651.219C305.286 651.219 304.651 651.344 304.109 651.594C303.578 651.844 303.125 652.182 302.75 652.609C302.375 653.026 302.068 653.505 301.828 654.047C301.599 654.578 301.427 655.13 301.312 655.703V659.75C301.521 660.479 301.812 661.167 302.188 661.812C302.562 662.448 303.062 662.964 303.688 663.359C304.312 663.745 305.099 663.938 306.047 663.938C306.828 663.938 307.5 663.776 308.062 663.453C308.635 663.12 309.104 662.667 309.469 662.094C309.844 661.521 310.12 660.865 310.297 660.125C310.474 659.375 310.562 658.578 310.562 657.734ZM324.172 666.312C322.995 666.312 321.927 666.115 320.969 665.719C320.021 665.312 319.203 664.745 318.516 664.016C317.839 663.286 317.318 662.422 316.953 661.422C316.589 660.422 316.406 659.328 316.406 658.141V657.484C316.406 656.109 316.609 654.885 317.016 653.812C317.422 652.729 317.974 651.812 318.672 651.062C319.37 650.312 320.161 649.745 321.047 649.359C321.932 648.974 322.849 648.781 323.797 648.781C325.005 648.781 326.047 648.99 326.922 649.406C327.807 649.823 328.531 650.406 329.094 651.156C329.656 651.896 330.073 652.771 330.344 653.781C330.615 654.781 330.75 655.875 330.75 657.062V658.359H318.125V656H327.859V655.781C327.818 655.031 327.661 654.302 327.391 653.594C327.13 652.885 326.714 652.302 326.141 651.844C325.568 651.385 324.786 651.156 323.797 651.156C323.141 651.156 322.536 651.297 321.984 651.578C321.432 651.849 320.958 652.255 320.562 652.797C320.167 653.339 319.859 654 319.641 654.781C319.422 655.562 319.312 656.464 319.312 657.484V658.141C319.312 658.943 319.422 659.698 319.641 660.406C319.87 661.104 320.198 661.719 320.625 662.25C321.062 662.781 321.589 663.198 322.203 663.5C322.828 663.802 323.536 663.953 324.328 663.953C325.349 663.953 326.214 663.745 326.922 663.328C327.63 662.911 328.25 662.354 328.781 661.656L330.531 663.047C330.167 663.599 329.703 664.125 329.141 664.625C328.578 665.125 327.885 665.531 327.062 665.844C326.25 666.156 325.286 666.312 324.172 666.312ZM337.016 652.703V666H334.125V649.094H336.859L337.016 652.703ZM336.328 656.906L335.125 656.859C335.135 655.703 335.307 654.635 335.641 653.656C335.974 652.667 336.443 651.807 337.047 651.078C337.651 650.349 338.37 649.786 339.203 649.391C340.047 648.984 340.979 648.781 342 648.781C342.833 648.781 343.583 648.896 344.25 649.125C344.917 649.344 345.484 649.698 345.953 650.188C346.432 650.677 346.797 651.312 347.047 652.094C347.297 652.865 347.422 653.807 347.422 654.922V666H344.516V654.891C344.516 654.005 344.385 653.297 344.125 652.766C343.865 652.224 343.484 651.833 342.984 651.594C342.484 651.344 341.87 651.219 341.141 651.219C340.422 651.219 339.766 651.37 339.172 651.672C338.589 651.974 338.083 652.391 337.656 652.922C337.24 653.453 336.911 654.062 336.672 654.75C336.443 655.427 336.328 656.146 336.328 656.906Z" fill="#FBCD6B"/>
<path d="M115.938 475.5H123.875L135.562 508.906L147.25 475.5H155.188L138.75 521H132.375L115.938 475.5ZM111.656 475.5H119.562L121 508.062V521H111.656V475.5ZM151.562 475.5H159.5V521H150.125V508.062L151.562 475.5ZM176.087 475.5V521H166.744V475.5H176.087ZM206.956 509.094C206.956 508.281 206.831 507.552 206.581 506.906C206.352 506.24 205.915 505.635 205.269 505.094C204.623 504.531 203.717 503.979 202.55 503.438C201.383 502.896 199.873 502.333 198.019 501.75C195.956 501.083 193.998 500.333 192.144 499.5C190.31 498.667 188.685 497.698 187.269 496.594C185.873 495.469 184.769 494.167 183.956 492.688C183.165 491.208 182.769 489.49 182.769 487.531C182.769 485.635 183.185 483.917 184.019 482.375C184.852 480.812 186.019 479.479 187.519 478.375C189.019 477.25 190.79 476.385 192.831 475.781C194.894 475.177 197.154 474.875 199.613 474.875C202.967 474.875 205.894 475.479 208.394 476.688C210.894 477.896 212.831 479.552 214.206 481.656C215.602 483.76 216.3 486.167 216.3 488.875H206.988C206.988 487.542 206.706 486.375 206.144 485.375C205.602 484.354 204.769 483.552 203.644 482.969C202.54 482.385 201.144 482.094 199.456 482.094C197.831 482.094 196.477 482.344 195.394 482.844C194.31 483.323 193.498 483.979 192.956 484.812C192.415 485.625 192.144 486.542 192.144 487.562C192.144 488.333 192.331 489.031 192.706 489.656C193.102 490.281 193.685 490.865 194.456 491.406C195.227 491.948 196.175 492.458 197.3 492.938C198.425 493.417 199.727 493.885 201.206 494.344C203.685 495.094 205.863 495.938 207.738 496.875C209.633 497.812 211.217 498.865 212.488 500.031C213.758 501.198 214.717 502.521 215.363 504C216.008 505.479 216.331 507.156 216.331 509.031C216.331 511.01 215.946 512.781 215.175 514.344C214.404 515.906 213.29 517.229 211.831 518.312C210.373 519.396 208.633 520.219 206.613 520.781C204.592 521.344 202.331 521.625 199.831 521.625C197.581 521.625 195.363 521.333 193.175 520.75C190.988 520.146 188.998 519.24 187.206 518.031C185.435 516.823 184.019 515.281 182.956 513.406C181.894 511.531 181.363 509.312 181.363 506.75H190.769C190.769 508.167 190.988 509.365 191.425 510.344C191.863 511.323 192.477 512.115 193.269 512.719C194.081 513.323 195.04 513.76 196.144 514.031C197.269 514.302 198.498 514.438 199.831 514.438C201.456 514.438 202.79 514.208 203.831 513.75C204.894 513.292 205.675 512.656 206.175 511.844C206.696 511.031 206.956 510.115 206.956 509.094ZM244.794 509.094C244.794 508.281 244.669 507.552 244.419 506.906C244.19 506.24 243.752 505.635 243.106 505.094C242.46 504.531 241.554 503.979 240.387 503.438C239.221 502.896 237.71 502.333 235.856 501.75C233.794 501.083 231.835 500.333 229.981 499.5C228.148 498.667 226.523 497.698 225.106 496.594C223.71 495.469 222.606 494.167 221.794 492.688C221.002 491.208 220.606 489.49 220.606 487.531C220.606 485.635 221.023 483.917 221.856 482.375C222.69 480.812 223.856 479.479 225.356 478.375C226.856 477.25 228.627 476.385 230.669 475.781C232.731 475.177 234.992 474.875 237.45 474.875C240.804 474.875 243.731 475.479 246.231 476.688C248.731 477.896 250.669 479.552 252.044 481.656C253.44 483.76 254.137 486.167 254.137 488.875H244.825C244.825 487.542 244.544 486.375 243.981 485.375C243.44 484.354 242.606 483.552 241.481 482.969C240.377 482.385 238.981 482.094 237.294 482.094C235.669 482.094 234.315 482.344 233.231 482.844C232.148 483.323 231.335 483.979 230.794 484.812C230.252 485.625 229.981 486.542 229.981 487.562C229.981 488.333 230.169 489.031 230.544 489.656C230.94 490.281 231.523 490.865 232.294 491.406C233.065 491.948 234.012 492.458 235.137 492.938C236.262 493.417 237.565 493.885 239.044 494.344C241.523 495.094 243.7 495.938 245.575 496.875C247.471 497.812 249.054 498.865 250.325 500.031C251.596 501.198 252.554 502.521 253.2 504C253.846 505.479 254.169 507.156 254.169 509.031C254.169 511.01 253.783 512.781 253.012 514.344C252.242 515.906 251.127 517.229 249.669 518.312C248.21 519.396 246.471 520.219 244.45 520.781C242.429 521.344 240.169 521.625 237.669 521.625C235.419 521.625 233.2 521.333 231.012 520.75C228.825 520.146 226.835 519.24 225.044 518.031C223.273 516.823 221.856 515.281 220.794 513.406C219.731 511.531 219.2 509.312 219.2 506.75H228.606C228.606 508.167 228.825 509.365 229.262 510.344C229.7 511.323 230.315 512.115 231.106 512.719C231.919 513.323 232.877 513.76 233.981 514.031C235.106 514.302 236.335 514.438 237.669 514.438C239.294 514.438 240.627 514.208 241.669 513.75C242.731 513.292 243.512 512.656 244.012 511.844C244.533 511.031 244.794 510.115 244.794 509.094ZM277.562 475.5H285.5L297.188 508.906L308.875 475.5H316.812L300.375 521H294L277.562 475.5ZM273.281 475.5H281.188L282.625 508.062V521H273.281V475.5ZM313.188 475.5H321.125V521H311.75V508.062L313.188 475.5ZM346.806 483.281L334.431 521H324.462L341.369 475.5H347.712L346.806 483.281ZM357.087 521L344.681 483.281L343.681 475.5H350.087L367.087 521H357.087ZM356.525 504.062V511.406H332.494V504.062H356.525ZM373.612 473V477.75C373.612 479.104 373.352 480.5 372.831 481.938C372.331 483.375 371.654 484.74 370.8 486.031C369.946 487.302 369.008 488.385 367.987 489.281L363.769 486.844C364.54 485.615 365.196 484.281 365.737 482.844C366.279 481.385 366.55 479.698 366.55 477.781V473H373.612ZM393.794 483.281L381.419 521H371.45L388.356 475.5H394.7L393.794 483.281ZM404.075 521L391.669 483.281L390.669 475.5H397.075L414.075 521H404.075ZM403.513 504.062V511.406H379.481V504.062H403.513ZM420.975 475.5H428.913L440.6 508.906L452.288 475.5H460.225L443.788 521H437.413L420.975 475.5ZM416.694 475.5H424.6L426.038 508.062V521H416.694V475.5ZM456.6 475.5H464.538V521H455.163V508.062L456.6 475.5ZM480.75 475.5L479.719 507.094H472.219L471.156 475.5H480.75ZM470.906 516.875C470.906 515.542 471.365 514.438 472.281 513.562C473.219 512.667 474.448 512.219 475.969 512.219C477.51 512.219 478.74 512.667 479.656 513.562C480.573 514.438 481.031 515.542 481.031 516.875C481.031 518.167 480.573 519.26 479.656 520.156C478.74 521.052 477.51 521.5 475.969 521.5C474.448 521.5 473.219 521.052 472.281 520.156C471.365 519.26 470.906 518.167 470.906 516.875Z" fill="#FBCD6B"/>
<path d="M189.1 424.91V447H102.779V428.309L142.541 386.508C146.053 382.486 148.885 378.89 151.037 375.718C153.189 372.489 154.747 369.572 155.71 366.967C156.729 364.361 157.239 362.011 157.239 359.915C157.239 356.347 156.701 353.373 155.625 350.994C154.605 348.559 153.076 346.718 151.037 345.472C149.055 344.226 146.591 343.603 143.646 343.603C140.7 343.603 138.123 344.452 135.914 346.151C133.705 347.851 131.978 350.173 130.731 353.118C129.542 356.063 128.947 359.377 128.947 363.059H100.23C100.23 355.469 102.071 348.53 105.753 342.243C109.491 335.956 114.674 330.943 121.301 327.205C127.928 323.41 135.603 321.513 144.325 321.513C153.444 321.513 161.091 322.929 167.265 325.761C173.438 328.593 178.083 332.699 181.198 338.08C184.37 343.404 185.956 349.833 185.956 357.366C185.956 361.671 185.276 365.806 183.917 369.771C182.558 373.735 180.604 377.672 178.055 381.58C175.506 385.432 172.391 389.396 168.709 393.475C165.084 397.553 160.949 401.886 156.305 406.474L140.332 424.91H189.1ZM289.608 373.849V396.448C289.608 405.341 288.561 413.072 286.465 419.643C284.426 426.213 281.48 431.65 277.629 435.955C273.834 440.26 269.303 443.46 264.035 445.556C258.768 447.651 252.962 448.699 246.618 448.699C241.521 448.699 236.763 448.048 232.345 446.745C227.927 445.386 223.934 443.347 220.365 440.628C216.854 437.853 213.823 434.397 211.274 430.263C208.726 426.128 206.771 421.257 205.412 415.649C204.053 409.985 203.373 403.585 203.373 396.448V373.849C203.373 364.899 204.393 357.168 206.432 350.654C208.527 344.084 211.501 338.646 215.353 334.342C219.204 330.037 223.764 326.837 229.031 324.741C234.299 322.646 240.104 321.598 246.448 321.598C251.546 321.598 256.275 322.277 260.637 323.637C265.055 324.939 269.048 326.979 272.616 329.754C276.185 332.473 279.215 335.899 281.707 340.034C284.256 344.169 286.21 349.068 287.569 354.732C288.929 360.34 289.608 366.712 289.608 373.849ZM260.977 399.932V370.195C260.977 366.23 260.75 362.775 260.297 359.83C259.9 356.885 259.277 354.393 258.428 352.354C257.635 350.314 256.644 348.672 255.454 347.426C254.265 346.123 252.905 345.188 251.376 344.622C249.903 343.999 248.261 343.688 246.448 343.688C244.183 343.688 242.144 344.169 240.331 345.132C238.575 346.038 237.074 347.511 235.828 349.55C234.582 351.589 233.619 354.308 232.939 357.706C232.316 361.104 232.005 365.268 232.005 370.195V399.932C232.005 403.953 232.203 407.465 232.6 410.467C233.053 413.412 233.676 415.933 234.469 418.028C235.318 420.067 236.338 421.738 237.527 423.041C238.717 424.287 240.076 425.193 241.605 425.76C243.135 426.326 244.806 426.609 246.618 426.609C248.827 426.609 250.81 426.156 252.565 425.25C254.321 424.344 255.822 422.871 257.068 420.832C258.371 418.736 259.334 415.989 259.957 412.591C260.637 409.136 260.977 404.916 260.977 399.932ZM390.967 424.91V447H304.646V428.309L344.408 386.508C347.92 382.486 350.752 378.89 352.904 375.718C355.057 372.489 356.614 369.572 357.577 366.967C358.597 364.361 359.106 362.011 359.106 359.915C359.106 356.347 358.568 353.373 357.492 350.994C356.473 348.559 354.943 346.718 352.904 345.472C350.922 344.226 348.458 343.603 345.513 343.603C342.567 343.603 339.99 344.452 337.781 346.151C335.572 347.851 333.845 350.173 332.599 353.118C331.409 356.063 330.814 359.377 330.814 363.059H302.098C302.098 355.469 303.938 348.53 307.62 342.243C311.358 335.956 316.541 330.943 323.168 327.205C329.795 323.41 337.47 321.513 346.192 321.513C355.312 321.513 362.958 322.929 369.132 325.761C375.306 328.593 379.95 332.699 383.065 338.08C386.237 343.404 387.823 349.833 387.823 357.366C387.823 361.671 387.144 365.806 385.784 369.771C384.425 373.735 382.471 377.672 379.922 381.58C377.373 385.432 374.258 389.396 370.576 393.475C366.951 397.553 362.816 401.886 358.172 406.474L342.199 424.91H390.967ZM431.663 373.169H445.597C449.165 373.169 452.082 372.546 454.348 371.3C456.67 369.997 458.397 368.185 459.53 365.862C460.663 363.483 461.229 360.68 461.229 357.451C461.229 354.959 460.691 352.665 459.615 350.569C458.596 348.474 457.01 346.803 454.857 345.557C452.705 344.254 449.958 343.603 446.616 343.603C444.351 343.603 442.142 344.084 439.989 345.047C437.837 345.953 436.053 347.256 434.637 348.955C433.277 350.654 432.598 352.722 432.598 355.157H403.881C403.881 348.134 405.807 342.13 409.658 337.146C413.566 332.104 418.692 328.253 425.036 325.591C431.437 322.872 438.318 321.513 445.682 321.513C454.461 321.513 462.164 322.872 468.791 325.591C475.418 328.253 480.572 332.218 484.254 337.485C487.992 342.696 489.861 349.153 489.861 356.856C489.861 361.104 488.87 365.098 486.888 368.836C484.905 372.574 482.13 375.859 478.562 378.691C474.993 381.523 470.802 383.761 465.987 385.403C461.229 386.989 456.019 387.782 450.354 387.782H431.663V373.169ZM431.663 394.494V380.221H450.354C456.528 380.221 462.164 380.929 467.262 382.345C472.359 383.704 476.749 385.743 480.431 388.462C484.112 391.181 486.944 394.551 488.927 398.572C490.909 402.537 491.9 407.097 491.9 412.251C491.9 418.028 490.739 423.183 488.417 427.714C486.095 432.245 482.838 436.068 478.646 439.184C474.455 442.299 469.556 444.678 463.948 446.32C458.341 447.906 452.252 448.699 445.682 448.699C440.527 448.699 435.373 448.02 430.219 446.66C425.064 445.244 420.363 443.092 416.115 440.203C411.867 437.258 408.44 433.52 405.835 428.988C403.286 424.4 402.012 418.935 402.012 412.591H430.729C430.729 415.196 431.437 417.575 432.853 419.728C434.325 421.823 436.279 423.494 438.715 424.74C441.15 425.986 443.784 426.609 446.616 426.609C450.128 426.609 453.102 425.958 455.537 424.655C458.029 423.296 459.927 421.483 461.229 419.218C462.532 416.952 463.184 414.432 463.184 411.656C463.184 407.465 462.476 404.123 461.06 401.631C459.7 399.139 457.689 397.326 455.027 396.193C452.422 395.061 449.278 394.494 445.597 394.494H431.663Z" fill="white"/>
<path d="M256.56 78.928C256.645 79.44 256.645 79.9093 256.56 80.336C256.475 80.6773 256.304 81.0187 256.048 81.36C255.792 81.7013 255.451 81.9573 255.024 82.128C249.307 83.92 238.683 87.1627 223.152 91.856C221.957 98.4267 220.251 107.557 218.032 119.248C216.24 128.379 214.917 135.163 214.064 139.6C213.296 144.037 212.4 148.773 211.376 153.808C210.437 158.843 209.712 162.469 209.2 164.688C208.944 165.968 208.133 166.608 206.768 166.608C206.597 166.608 206.427 166.608 206.256 166.608C205.659 166.437 205.147 166.053 204.72 165.456C204.379 164.944 204.293 164.347 204.464 163.664C205.403 158.885 208.304 143.781 213.168 118.352C215.216 107.259 216.795 98.9387 217.904 93.392C217.819 93.392 217.733 93.4347 217.648 93.52C217.648 93.52 217.605 93.52 217.52 93.52C194.139 100.603 176.432 106.021 164.4 109.776C154.501 157.819 148.741 188.069 147.12 200.528C147.632 200.784 148.016 201.211 148.272 201.808C148.613 202.405 148.656 203.003 148.4 203.6C147.973 204.795 147.632 205.691 147.376 206.288C147.12 206.885 146.736 207.44 146.224 207.952C145.712 208.549 145.157 208.848 144.56 208.848C144.304 208.848 144.005 208.805 143.664 208.72C142.469 208.464 141.829 207.568 141.744 206.032C141.573 204.496 141.744 202.363 142.256 199.632C142.768 195.707 143.664 190.117 144.944 182.864C147.248 170.32 150.661 152.827 155.184 130.384C156.379 124.411 157.659 118.096 159.024 111.44C151.6 113.829 144.944 116.005 139.056 117.968C115.76 125.648 101.595 131.152 96.56 134.48C97.4133 135.077 97.7547 135.888 97.584 136.912C97.328 138.277 96.5173 138.96 95.152 138.96C94.9813 138.96 94.8107 138.917 94.64 138.832C91.9093 138.32 90.4587 137.083 90.288 135.12C90.288 133.755 91.184 132.347 92.976 130.896C94.768 129.531 98.3947 127.696 103.856 125.392C111.024 122.405 121.307 118.651 134.704 114.128C142.043 111.739 150.491 109.008 160.048 105.936C164.4 84.8587 169.435 60.752 175.152 33.616L175.792 31.056C176.475 27.8133 176.816 25.168 176.816 23.12C176.816 20.9867 176.731 19.7493 176.56 19.408C176.389 18.9813 176.219 18.7253 176.048 18.64C175.877 18.5547 175.579 18.5547 175.152 18.64C174.811 18.7253 174.128 19.0667 173.104 19.664C172.08 20.2613 170.971 21.072 169.776 22.096C166.789 24.656 163.632 28.112 160.304 32.464C157.061 36.816 154.16 41.3387 151.6 46.032C149.808 49.4453 148.357 52.6453 147.248 55.632C146.139 58.6187 145.413 61.264 145.072 63.568C144.816 65.7867 144.987 67.6213 145.584 69.072C146.523 71.376 148.955 72.4 152.88 72.144C153.563 72.0587 154.16 72.272 154.672 72.784C155.184 73.2107 155.44 73.7653 155.44 74.448C155.525 75.1307 155.355 75.728 154.928 76.24C154.501 76.752 153.947 77.008 153.264 77.008C146.949 77.4347 142.853 75.3867 140.976 70.864C139.696 67.8773 139.739 63.8667 141.104 58.832C142.384 53.712 144.432 48.6347 147.248 43.6C150.149 38.5653 153.307 33.7867 156.72 29.264C160.219 24.656 163.461 21.0293 166.448 18.384C171.568 13.9467 175.579 12.624 178.48 14.416C181.979 16.464 182.661 22.3093 180.528 31.952L180.016 34.64C174.555 60.6667 169.691 83.8773 165.424 104.272C177.029 100.688 193.925 95.5253 216.112 88.784C216.368 88.6987 216.667 88.6133 217.008 88.528C217.349 88.4427 217.691 88.3573 218.032 88.272C218.373 88.1013 218.672 88.016 218.928 88.016C227.632 42.3627 233.392 14.032 236.208 3.02399C236.379 2.34133 236.763 1.82933 237.36 1.48799C237.957 1.14666 238.555 1.06133 239.152 1.23199C239.835 1.40266 240.347 1.78666 240.688 2.384C241.029 2.98133 241.115 3.57866 240.944 4.17599C238.213 14.928 232.624 42.32 224.176 86.352C238.171 82.1707 247.941 79.184 253.488 77.392C254.085 77.2213 254.683 77.3067 255.28 77.648C255.963 77.904 256.389 78.3307 256.56 78.928ZM302.715 101.456C303.398 101.2 304.038 101.243 304.635 101.584C305.232 101.84 305.616 102.309 305.787 102.992C306.043 103.589 306.043 104.187 305.787 104.784C296.656 123.643 288.507 133.072 281.339 133.072C280.912 133.072 280.443 133.029 279.931 132.944C274.214 131.835 270.672 124.155 269.307 109.904C265.126 115.536 261.414 120.144 258.171 123.728C255.27 126.8 252.795 127.867 250.747 126.928C248.699 126.16 247.718 123.941 247.803 120.272C247.803 117.2 248.486 113.531 249.851 109.264C251.216 104.997 253.222 100.859 255.867 96.848C258.512 92.8373 261.371 90.32 264.443 89.296C268.966 87.6747 273.147 89.168 276.987 93.776C277.414 94.288 277.584 94.8853 277.499 95.568C277.499 96.2507 277.243 96.8053 276.731 97.232C276.219 97.6587 275.622 97.872 274.939 97.872C274.256 97.7867 273.702 97.488 273.275 96.976C270.288 93.392 267.259 92.7093 264.187 94.928C260.688 97.4027 257.744 101.883 255.355 108.368C253.051 114.768 252.155 119.333 252.667 122.064C253.179 121.637 253.776 121.083 254.459 120.4C257.872 116.731 262.054 111.483 267.003 104.656C268.112 103.12 268.88 102.053 269.307 101.456C269.99 100.603 270.886 100.347 271.995 100.688C273.104 100.944 273.702 101.669 273.787 102.864C273.958 107.045 274.299 110.757 274.811 114C275.323 117.243 275.835 119.717 276.347 121.424C276.859 123.045 277.456 124.411 278.139 125.52C278.822 126.629 279.334 127.355 279.675 127.696C280.102 127.952 280.528 128.08 280.955 128.08C282.15 128.336 283.643 127.781 285.435 126.416C287.312 124.965 289.659 122.235 292.475 118.224C295.376 114.128 298.32 108.965 301.307 102.736C301.648 102.053 302.118 101.627 302.715 101.456ZM326.02 82.512C328.58 83.28 330.287 85.328 331.14 88.656C331.993 91.8987 331.865 95.696 330.756 100.048C328.708 107.557 323.673 114.512 315.652 120.912C312.324 123.643 308.655 126.032 304.644 128.08C301.572 140.624 298.159 156.197 294.404 174.8C290.564 193.488 287.748 208.251 285.956 219.088C285.7 220.453 284.889 221.136 283.524 221.136C283.353 221.136 283.225 221.136 283.14 221.136C282.713 221.051 282.329 220.88 281.988 220.624C281.647 220.368 281.391 220.027 281.22 219.6C281.049 219.173 281.007 218.747 281.092 218.32C283.311 203.387 288.217 174.544 295.812 131.792C294.788 132.133 293.764 132.432 292.74 132.688C292.057 132.944 291.417 132.901 290.82 132.56C290.223 132.219 289.839 131.707 289.668 131.024C289.497 130.341 289.583 129.701 289.924 129.104C290.265 128.507 290.777 128.123 291.46 127.952C293.167 127.525 294.916 126.928 296.708 126.16C297.305 123.173 298.116 118.736 299.14 112.848C303.577 87.9307 305.839 74.9173 305.924 73.808C305.924 73.1253 306.137 72.5707 306.564 72.144C307.076 71.632 307.631 71.376 308.228 71.376C308.911 71.2907 309.508 71.504 310.02 72.016C310.532 72.4427 310.831 72.9973 310.916 73.68C310.916 74.3627 308.911 85.968 304.9 108.496C306.18 104.912 307.46 101.669 308.74 98.768C310.105 95.8667 311.343 93.4773 312.452 91.6C313.647 89.7227 314.841 88.144 316.036 86.864C317.231 85.584 318.297 84.6453 319.236 84.048C320.175 83.3653 321.071 82.896 321.924 82.64C322.863 82.2987 323.631 82.1707 324.228 82.256C324.911 82.256 325.508 82.3413 326.02 82.512ZM326.02 98.768C326.788 95.44 326.959 92.752 326.532 90.704C326.191 88.656 325.551 87.504 324.612 87.248C324.527 87.1627 324.399 87.12 324.228 87.12C323.716 87.12 323.119 87.3333 322.436 87.76C321.839 88.1013 321.028 88.8267 320.004 89.936C318.98 90.96 317.913 92.3253 316.804 94.032C315.78 95.6533 314.585 97.9147 313.22 100.816C311.94 103.717 310.66 107.045 309.38 110.8C308.527 113.36 307.503 116.944 306.308 121.552C311.172 118.565 315.353 115.109 318.852 111.184C322.436 107.259 324.825 103.12 326.02 98.768ZM364.645 82.512C367.205 83.28 368.912 85.328 369.765 88.656C370.618 91.8987 370.49 95.696 369.381 100.048C367.333 107.557 362.298 114.512 354.277 120.912C350.949 123.643 347.28 126.032 343.269 128.08C340.197 140.624 336.784 156.197 333.029 174.8C329.189 193.488 326.373 208.251 324.581 219.088C324.325 220.453 323.514 221.136 322.149 221.136C321.978 221.136 321.85 221.136 321.765 221.136C321.338 221.051 320.954 220.88 320.613 220.624C320.272 220.368 320.016 220.027 319.845 219.6C319.674 219.173 319.632 218.747 319.717 218.32C321.936 203.387 326.842 174.544 334.437 131.792C333.413 132.133 332.389 132.432 331.365 132.688C330.682 132.944 330.042 132.901 329.445 132.56C328.848 132.219 328.464 131.707 328.293 131.024C328.122 130.341 328.208 129.701 328.549 129.104C328.89 128.507 329.402 128.123 330.085 127.952C331.792 127.525 333.541 126.928 335.333 126.16C335.93 123.173 336.741 118.736 337.765 112.848C342.202 87.9307 344.464 74.9173 344.549 73.808C344.549 73.1253 344.762 72.5707 345.189 72.144C345.701 71.632 346.256 71.376 346.853 71.376C347.536 71.2907 348.133 71.504 348.645 72.016C349.157 72.4427 349.456 72.9973 349.541 73.68C349.541 74.3627 347.536 85.968 343.525 108.496C344.805 104.912 346.085 101.669 347.365 98.768C348.73 95.8667 349.968 93.4773 351.077 91.6C352.272 89.7227 353.466 88.144 354.661 86.864C355.856 85.584 356.922 84.6453 357.861 84.048C358.8 83.3653 359.696 82.896 360.549 82.64C361.488 82.2987 362.256 82.1707 362.853 82.256C363.536 82.256 364.133 82.3413 364.645 82.512ZM364.645 98.768C365.413 95.44 365.584 92.752 365.157 90.704C364.816 88.656 364.176 87.504 363.237 87.248C363.152 87.1627 363.024 87.12 362.853 87.12C362.341 87.12 361.744 87.3333 361.061 87.76C360.464 88.1013 359.653 88.8267 358.629 89.936C357.605 90.96 356.538 92.3253 355.429 94.032C354.405 95.6533 353.21 97.9147 351.845 100.816C350.565 103.717 349.285 107.045 348.005 110.8C347.152 113.36 346.128 116.944 344.933 121.552C349.797 118.565 353.978 115.109 357.477 111.184C361.061 107.259 363.45 103.12 364.645 98.768ZM436.934 100.816C437.617 100.901 438.129 101.243 438.47 101.84C438.897 102.352 439.025 102.949 438.854 103.632C438.683 104.315 438.342 104.827 437.83 105.168C422.726 114.981 410.353 124.752 400.71 134.48C395.675 164.603 390.171 189.051 384.198 207.824C377.115 229.925 370.246 241.915 363.59 243.792C362.993 243.963 362.353 244.048 361.67 244.048C359.707 244.048 358.001 243.195 356.55 241.488C354.161 238.416 352.881 233.339 352.71 226.256C352.454 219.173 353.563 210.811 356.038 201.168C358.427 191.525 361.926 182.224 366.534 173.264C374.641 157.819 384.539 144.08 396.23 132.048C397.51 124.027 398.79 115.621 400.07 106.832C397.425 110.843 394.95 114.213 392.646 116.944C388.891 121.552 385.307 122.832 381.894 120.784C379.078 119.077 377.585 115.536 377.414 110.16C377.243 104.699 378.481 98.768 381.126 92.368C381.382 91.7707 381.809 91.344 382.406 91.088C383.089 90.832 383.729 90.832 384.326 91.088C384.923 91.344 385.35 91.7707 385.606 92.368C385.947 92.9653 385.99 93.6053 385.734 94.288C383.43 100.517 382.278 105.595 382.278 109.52C382.363 113.445 383.089 115.792 384.454 116.56C385.393 117.157 386.843 116.261 388.806 113.872C393.073 108.752 397.467 102.267 401.99 94.416C402.673 93.2213 403.654 92.88 404.934 93.392C406.214 93.8187 406.769 94.672 406.598 95.952C405.147 106.619 403.654 116.731 402.118 126.288C410.907 118.096 421.915 109.691 435.142 101.072C435.654 100.731 436.251 100.645 436.934 100.816ZM379.462 206.416C384.923 189.349 390.001 167.547 394.694 141.008C385.478 151.248 377.542 162.768 370.886 175.568C367.217 182.565 364.315 189.691 362.182 196.944C359.963 204.283 358.598 210.683 358.086 216.144C357.574 221.605 357.531 226.299 357.958 230.224C358.385 234.149 359.195 236.837 360.39 238.288C360.987 238.971 361.585 239.227 362.182 239.056C362.609 238.971 363.078 238.757 363.59 238.416C364.102 238.075 364.955 237.179 366.15 235.728C367.345 234.363 368.539 232.571 369.734 230.352C370.929 228.219 372.422 225.061 374.214 220.88C376.006 216.699 377.755 211.877 379.462 206.416Z" fill="#FBCD6B"/>
</svg>
