<svg width="1920" height="1080" viewBox="0 0 1920 1080" fill="none" xmlns="http://www.w3.org/2000/svg">
<path fill-rule="evenodd" clip-rule="evenodd" d="M279.5 864.5C271.5 872.5 246 875 246 875C246 875 271.5 877.5 279.5 885.5C287.5 893.5 290 919 290 919C290 919 292.5 893.5 300.5 885.5C308.5 877.5 334 875 334 875C334 875 308.5 872.5 300.5 864.5C292.5 856.5 290 831 290 831C290 831 287.5 856.5 279.5 864.5Z" fill="white"/>
<path fill-rule="evenodd" clip-rule="evenodd" d="M1557.5 259.5C1549.5 267.5 1524 270 1524 270C1524 270 1549.5 272.5 1557.5 280.5C1565.5 288.5 1568 314 1568 314C1568 314 1570.5 288.5 1578.5 280.5C1586.5 272.5 1612 270 1612 270C1612 270 1586.5 267.5 1578.5 259.5C1570.5 251.5 1568 226 1568 226C1568 226 1565.5 251.5 1557.5 259.5Z" fill="white"/>
<path fill-rule="evenodd" clip-rule="evenodd" d="M1179.5 910.5C1171.5 918.5 1146 921 1146 921C1146 921 1171.5 923.5 1179.5 931.5C1187.5 939.5 1190 965 1190 965C1190 965 1192.5 939.5 1200.5 931.5C1208.5 923.5 1234 921 1234 921C1234 921 1208.5 918.5 1200.5 910.5C1192.5 902.5 1190 877 1190 877C1190 877 1187.5 902.5 1179.5 910.5Z" fill="white"/>
<path fill-rule="evenodd" clip-rule="evenodd" d="M1638.28 652.246C1632 658.522 1612 660.483 1612 660.483C1612 660.483 1632 662.444 1638.28 668.72C1644.56 674.996 1646.52 695 1646.52 695C1646.52 695 1648.48 674.996 1654.75 668.72C1661.03 662.444 1681.03 660.483 1681.03 660.483C1681.03 660.483 1661.03 658.522 1654.75 652.246C1648.48 645.97 1646.52 625.966 1646.52 625.966C1646.52 625.966 1644.56 645.97 1638.28 652.246Z" fill="white"/>
<path fill-rule="evenodd" clip-rule="evenodd" d="M1697.16 620.126C1693.31 623.978 1681.03 625.181 1681.03 625.181L1697.16 630.236C1701.01 634.087 1702.22 646.362 1702.22 646.362C1702.22 646.362 1703.42 634.087 1707.27 630.236C1711.12 626.385 1723.4 625.181 1723.4 625.181C1723.4 625.181 1711.12 623.978 1707.27 620.126C1703.42 616.275 1702.22 604 1702.22 604C1702.22 604 1701.01 616.275 1697.16 620.126Z" fill="white"/>
<path fill-rule="evenodd" clip-rule="evenodd" d="M499.5 425.5C491.5 433.5 466 436 466 436C466 436 491.5 438.5 499.5 446.5C507.5 454.5 510 480 510 480C510 480 512.5 454.5 520.5 446.5C528.5 438.5 554 436 554 436C554 436 528.5 433.5 520.5 425.5C512.5 417.5 510 392 510 392C510 392 507.5 417.5 499.5 425.5Z" fill="white"/>
<path fill-rule="evenodd" clip-rule="evenodd" d="M574.557 384.557C569.648 389.466 554 391 554 391C554 391 569.648 392.534 574.557 397.443C579.466 402.352 581 418 581 418C581 418 582.534 402.352 587.443 397.443C592.352 392.534 608 391 608 391C608 391 592.352 389.466 587.443 384.557C582.534 379.648 581 364 581 364C581 364 579.466 379.648 574.557 384.557Z" fill="white"/>
</svg>
